<svg width="24" height="24" viewBox="0 0 24 24" fill="none" xmlns="http://www.w3.org/2000/svg">
<g clip-path="url(#clip0_660_10892)">
<path fill-rule="evenodd" clip-rule="evenodd" d="M1 0.25C0.585786 0.25 0.25 0.585786 0.25 1V20C0.25 22.0711 1.92893 23.75 4 23.75H21.1441C22.5833 23.75 23.75 22.5833 23.75 21.1441V5.17241C23.75 4.7582 23.4142 4.42241 23 4.42241H21.1739C20.7597 4.42241 20.4239 4.7582 20.4239 5.17241C20.4239 5.58663 20.7597 5.92241 21.1739 5.92241H22.25V21.1441C22.25 21.7549 21.7549 22.25 21.1441 22.25C20.4942 22.25 19.9674 21.7232 19.9674 21.0733V1C19.9674 0.585786 19.6316 0.25 19.2174 0.25H1ZM18.4674 21.0733C18.4674 21.4955 18.5651 21.8949 18.7392 22.25H4C2.75736 22.25 1.75 21.2426 1.75 20V1.75H18.4674V21.0733ZM7 3.25C6.58579 3.25 6.25 3.58579 6.25 4C6.25 4.41421 6.58579 4.75 7 4.75H13C13.4142 4.75 13.75 4.41421 13.75 4C13.75 3.58579 13.4142 3.25 13 3.25H7ZM3.25 9C3.25 8.58579 3.58579 8.25 4 8.25H8C8.41421 8.25 8.75 8.58579 8.75 9C8.75 9.41421 8.41421 9.75 8 9.75H4C3.58579 9.75 3.25 9.41421 3.25 9ZM3.25 11.6471C3.25 11.2328 3.58579 10.8971 4 10.8971H8C8.41421 10.8971 8.75 11.2328 8.75 11.6471C8.75 12.0613 8.41421 12.3971 8 12.3971H4C3.58579 12.3971 3.25 12.0613 3.25 11.6471ZM12 15.8971C11.5858 15.8971 11.25 16.2329 11.25 16.6471C11.25 17.0613 11.5858 17.3971 12 17.3971H16C16.4142 17.3971 16.75 17.0613 16.75 16.6471C16.75 16.2329 16.4142 15.8971 16 15.8971H12ZM12 18.25C11.5858 18.25 11.25 18.5858 11.25 19C11.25 19.4142 11.5858 19.75 12 19.75H16C16.4142 19.75 16.75 19.4142 16.75 19C16.75 18.5858 16.4142 18.25 16 18.25H12ZM10.25 8C10.25 7.58579 10.5858 7.25 11 7.25H16C16.4142 7.25 16.75 7.58579 16.75 8V13C16.75 13.4142 16.4142 13.75 16 13.75H11C10.5858 13.75 10.25 13.4142 10.25 13V8ZM11.75 8.75V12.25H15.25V8.75H11.75ZM9 14.25C9.41421 14.25 9.75 14.5858 9.75 15V20C9.75 20.4142 9.41421 20.75 9 20.75H4C3.58579 20.75 3.25 20.4142 3.25 20V15C3.25 14.5858 3.58579 14.25 4 14.25H9ZM8.25 19.25V15.75H4.75V19.25H8.25Z" fill="#3E50F7"/>
</g>
<defs>
<clipPath id="clip0_660_10892">
<rect width="24" height="24" fill="white"/>
</clipPath>
</defs>
</svg>
