<svg width="24" height="19" viewBox="0 0 24 19" fill="none" xmlns="http://www.w3.org/2000/svg">
<path d="M14.1903 5.41592C11.7047 6.5826 9.87802 8.71306 8.2041 8.76378C6.53017 8.81451 6.2177 7.60247 6.36558 7.11041C6.48388 6.71677 9.57429 4.86357 11.2989 2.93308C13.0236 1.00259 15.1348 1.42567 16.407 2.04035C17.6791 2.65504 20.2241 3.49309 22.4077 3.79391L22.5105 10.1131C21.6081 10.4084 20.4916 10.8516 19.1411 11.3563C17.7906 11.8611 16.9532 12.1773 16.4946 12.3522" stroke="#3E50F7" stroke-width="1.2" stroke-linecap="round" stroke-linejoin="round"/>
<path d="M12.4355 7.10791L16.4587 12.2925" stroke="#3E50F7" stroke-width="1.2" stroke-linecap="round" stroke-linejoin="round"/>
<path d="M10.8763 2.60103C10.4719 2.2541 9.25846 1.58343 7.64014 1.6762C5.61724 1.79215 2.91553 3.62577 0.705469 4.08657L0.647461 10.5177C1.75147 10.6426 3.13528 11.7676 4.17283 12.8869C5.61841 14.4465 7.4545 16.9137 8.50974 17.3885C9.66547 17.9086 10.6223 17.2657 11.0536 16.6966" stroke="#3E50F7" stroke-width="1.2" stroke-linecap="round" stroke-linejoin="round"/>
<path d="M9.09473 14.4355C10.0596 15.4486 10.8848 16.6535 11.7247 16.6183C12.5593 16.5833 13.0822 16.1267 13.3329 15.7165" stroke="#3E50F7" stroke-width="1.2" stroke-linecap="round" stroke-linejoin="round"/>
<path d="M11.3135 13.4712C12.2784 14.5807 13.1095 15.7422 13.9221 15.7076C14.7296 15.6732 15.2928 14.6226 15.2928 14.6226" stroke="#3E50F7" stroke-width="1.2" stroke-linecap="round" stroke-linejoin="round"/>
<path d="M13.4363 12.4583C14.257 13.423 15.161 14.4393 15.9974 14.5237C16.979 14.6228 18.2387 13.6046 18.2387 12.0608" stroke="#3E50F7" stroke-width="1.2" stroke-linecap="round" stroke-linejoin="round"/>
</svg>
