<svg width="24" height="24" viewBox="0 0 24 24" fill="none" xmlns="http://www.w3.org/2000/svg">
<g clip-path="url(#clip0_660_10894)">
<path fill-rule="evenodd" clip-rule="evenodd" d="M1.881 10.3569C1.7948 10.8918 1.75 11.4407 1.75 12C1.75 12.3168 1.76437 12.6303 1.7925 12.9398C2.43137 12.7554 3.13533 12.6785 3.80185 12.6834C4.30142 12.6871 4.81559 12.737 5.30158 12.8385C5.26753 12.5638 5.25 12.284 5.25 12C5.25 11.404 5.32724 10.8261 5.47226 10.2756C5.38294 10.2353 5.26827 10.1926 5.12326 10.152C4.74045 10.0448 4.25746 9.98351 3.75777 9.98084C3.2577 9.97816 2.77711 10.0344 2.39791 10.1393C2.13187 10.213 1.97078 10.2951 1.881 10.3569ZM2.32187 8.61569C2.78077 8.52066 3.27963 8.47826 3.7658 8.48086C4.36953 8.48409 4.98988 8.55692 5.52779 8.70757C5.68661 8.75205 5.85212 8.8071 6.01494 8.87587C6.71768 7.53235 7.85954 6.4548 9.25 5.83375V2.12309C6.01404 3.02214 3.42222 5.46878 2.32187 8.61569ZM10.75 1.82545V5.36551C11.1551 5.28967 11.5729 5.25 12 5.25C12.4271 5.25 12.8449 5.28967 13.25 5.36551V1.82545C12.8403 1.77564 12.4231 1.75 12 1.75C11.5769 1.75 11.1597 1.77564 10.75 1.82545ZM14.75 2.12309V5.83375C16.1618 6.46431 17.3172 7.56546 18.017 8.93778C18.7017 8.64282 19.4888 8.50206 20.2413 8.49653C20.7208 8.493 21.2177 8.54422 21.694 8.66141C20.6028 5.49249 18.0016 3.02649 14.75 2.12309ZM22.131 10.4331C21.6654 10.1538 20.9928 9.99104 20.2524 9.99649C19.6144 10.0012 19.0118 10.1304 18.5455 10.3445C18.6791 10.8742 18.75 11.4288 18.75 12C18.75 12.2483 18.7366 12.4934 18.7105 12.7347C19.1903 12.6172 19.6962 12.5603 20.1875 12.557C20.8599 12.5525 21.569 12.6478 22.2137 12.8692C22.2377 12.5827 22.25 12.2928 22.25 12C22.25 11.4672 22.2094 10.944 22.131 10.4331ZM21.9715 14.3833C21.4863 14.1706 20.8596 14.0525 20.1977 14.057C19.4267 14.0622 18.7321 14.2326 18.2743 14.4941C17.6172 16.1456 16.3269 17.4765 14.7031 18.187V21.8898C18.2972 20.9097 21.1048 18.0228 21.9715 14.3833ZM13.2031 22.1801V18.6431C12.8127 18.7133 12.4106 18.75 12 18.75C11.5729 18.75 11.1551 18.7103 10.75 18.6345V22.1745C11.1597 22.2244 11.5769 22.25 12 22.25C12.407 22.25 12.8085 22.2263 13.2031 22.1801ZM9.25 21.8769V18.1663C7.66229 17.4571 6.39872 16.1527 5.74292 14.5368C5.26167 14.3258 4.55788 14.189 3.79078 14.1834C3.13961 14.1785 2.52425 14.2689 2.04063 14.4336C2.91724 18.0336 5.69489 20.8892 9.25 21.8769ZM0.25 12C0.25 5.51065 5.51065 0.25 12 0.25C18.4893 0.25 23.75 5.51065 23.75 12C23.75 18.4893 18.4893 23.75 12 23.75C5.51065 23.75 0.25 18.4893 0.25 12ZM12 6.75C9.1005 6.75 6.75 9.1005 6.75 12C6.75 14.8995 9.1005 17.25 12 17.25C14.8995 17.25 17.25 14.8995 17.25 12C17.25 9.1005 14.8995 6.75 12 6.75ZM11.756 9.75538C11.5015 9.82979 11.3336 9.99771 11.2777 10.1841C11.1632 10.5651 10.7616 10.7812 10.3805 10.6668C9.99951 10.5524 9.78339 10.1507 9.89782 9.76968C10.1186 9.03465 10.7171 8.55809 11.3517 8.37254C11.9867 8.18686 12.745 8.26562 13.3393 8.74307C13.9112 9.20257 14.1845 9.87061 14.1168 10.5613C14.051 11.2323 13.6733 11.8581 13.0783 12.3267C12.7815 12.5885 12.6778 12.7504 12.6353 12.8461C12.5962 12.934 12.5818 13.0218 12.5818 13.2282C12.5818 13.6261 12.2592 13.9486 11.8614 13.9486C11.4635 13.9486 11.141 13.6261 11.141 13.2282C11.141 12.9642 11.1546 12.6303 11.3187 12.261C11.4788 11.9008 11.751 11.5734 12.1443 11.2296C12.1548 11.2204 12.1655 11.2115 12.1766 11.203C12.5278 10.9302 12.6618 10.6366 12.683 10.4207C12.7029 10.2176 12.6327 10.0235 12.437 9.86624C12.2636 9.72695 12.01 9.68111 11.756 9.75538ZM11.9983 15.961C12.4828 15.961 12.8756 15.5683 12.8756 15.0838C12.8756 14.5993 12.4828 14.2065 11.9983 14.2065C11.5138 14.2065 11.1211 14.5993 11.1211 15.0838C11.1211 15.5683 11.5138 15.961 11.9983 15.961Z" fill="#3E50F7"/>
</g>
<defs>
<clipPath id="clip0_660_10894">
<rect width="24" height="24" fill="white"/>
</clipPath>
</defs>
</svg>
