<svg width="15" height="16" viewBox="0 0 15 16" fill="none" xmlns="http://www.w3.org/2000/svg">
<path d="M10.5 6.7025L6.75 4.535C6.52209 4.40341 6.26356 4.3341 6.00039 4.33404C5.73721 4.33397 5.47865 4.40314 5.25067 4.53461C5.02268 4.66608 4.8333 4.85522 4.70154 5.08304C4.56978 5.31085 4.50027 5.56932 4.5 5.8325V10.1675C4.50027 10.4305 4.56971 10.6889 4.70135 10.9166C4.83299 11.1444 5.0222 11.3335 5.25 11.465C5.47803 11.5966 5.7367 11.666 6 11.666C6.26331 11.666 6.52197 11.5966 6.75 11.465L10.5 9.2975C10.7273 9.16564 10.916 8.97638 11.0471 8.74867C11.1783 8.52096 11.2473 8.26278 11.2473 8C11.2473 7.73721 11.1783 7.47904 11.0471 7.25133C10.916 7.02362 10.7273 6.83436 10.5 6.7025ZM9.75 8L6 10.1675V5.8325L9.75 8ZM7.5 0.5C6.01664 0.5 4.56659 0.939867 3.33323 1.76398C2.09986 2.58809 1.13856 3.75943 0.570907 5.12987C0.00324963 6.50032 -0.145275 8.00832 0.144114 9.46317C0.433503 10.918 1.14781 12.2544 2.1967 13.3033C3.2456 14.3522 4.58197 15.0665 6.03682 15.3559C7.49168 15.6453 8.99968 15.4967 10.3701 14.9291C11.7406 14.3614 12.9119 13.4001 13.736 12.1668C14.5601 10.9334 15 9.48336 15 8C15 7.01508 14.806 6.03981 14.4291 5.12987C14.0522 4.21993 13.4997 3.39314 12.8033 2.6967C12.1069 2.00026 11.2801 1.44781 10.3701 1.0709C9.46019 0.693993 8.48492 0.5 7.5 0.5ZM7.5 14C6.31331 14 5.15328 13.6481 4.16658 12.9888C3.17989 12.3295 2.41085 11.3925 1.95673 10.2961C1.5026 9.19974 1.38378 7.99334 1.61529 6.82946C1.8468 5.66557 2.41825 4.59647 3.25736 3.75736C4.09648 2.91824 5.16557 2.3468 6.32946 2.11529C7.49335 1.88378 8.69975 2.0026 9.7961 2.45672C10.8925 2.91085 11.8295 3.67988 12.4888 4.66658C13.1481 5.65327 13.5 6.81331 13.5 8C13.5 9.5913 12.8679 11.1174 11.7426 12.2426C10.6174 13.3679 9.0913 14 7.5 14Z" fill="#3E50F7"/>
</svg>
