<svg width="24" height="24" viewBox="0 0 24 24" fill="none" xmlns="http://www.w3.org/2000/svg">
<path fill-rule="evenodd" clip-rule="evenodd" d="M12.0001 1.25C12.2927 1.25 12.5586 1.42017 12.6811 1.68587L15.3267 7.42136L21.599 8.16505C21.8895 8.1995 22.1335 8.39979 22.224 8.67807C22.3144 8.95635 22.2347 9.2618 22.0199 9.46047L17.3826 13.7489L18.6136 19.944C18.6706 20.231 18.5555 20.5249 18.3188 20.6969C18.0821 20.8689 17.7669 20.8875 17.5116 20.7446L12.0001 17.6595L6.48857 20.7446C6.23325 20.8875 5.91812 20.8689 5.6814 20.6969C5.44468 20.5249 5.3296 20.231 5.38662 19.944L6.61758 13.7489L1.98031 9.46047C1.76549 9.2618 1.68582 8.95635 1.77624 8.67807C1.86665 8.39979 2.11066 8.1995 2.40122 8.16505L8.67352 7.42136L11.319 1.68587C11.4416 1.42017 11.7075 1.25 12.0001 1.25ZM12.0001 3.79063L9.85977 8.43085C9.75052 8.66771 9.52605 8.83079 9.26703 8.8615L4.19252 9.46317L7.94423 12.9326C8.13574 13.1097 8.22147 13.3736 8.17064 13.6294L7.17475 18.6415L11.6338 16.1456C11.8614 16.0181 12.1388 16.0181 12.3664 16.1456L16.8254 18.6415L15.8295 13.6294C15.7787 13.3736 15.8644 13.1097 16.056 12.9326L19.8077 9.46317L14.7332 8.8615C14.4741 8.83079 14.2497 8.66771 14.1404 8.43085L12.0001 3.79063Z" fill="#3E50F7"/>
</svg>
